<svg width="32" height="32" viewBox="0 0 32 32" fill="none" xmlns="http://www.w3.org/2000/svg">
<rect width="32" height="32" rx="16" fill="#C8E6C9"/>
<path d="M11.7962 13.4348C11.9988 12.1487 12.3493 10.9902 12.8138 10.0429C13.2326 9.1878 13.7647 8.46719 14.3879 8C12.8422 8.32579 11.4253 9.11042 10.315 10.2554C9.20466 11.4003 8.4505 12.8546 8.14715 14.4355C8.63764 14.201 9.14816 14.0129 9.67228 13.8735C10.3708 13.6829 11.0801 13.5361 11.7962 13.4339M8.0171 16.5482C7.9943 16.1831 7.9943 15.8169 8.0171 15.4518C8.04581 15.4311 8.07621 15.4104 8.1083 15.3897C8.50521 15.1285 9.10479 14.8777 9.88172 14.6614C10.476 14.4998 11.0784 14.3714 11.6864 14.2769C11.5689 15.4225 11.5689 16.5775 11.6864 17.7231C11.0787 17.6285 10.4765 17.5002 9.88256 17.3386C9.10564 17.1214 8.50436 16.8715 8.1083 16.6103L8.0171 16.5482ZM8.1463 17.5653C8.44986 19.1463 9.20422 20.6004 10.3147 21.7452C11.4251 22.89 12.8422 23.6744 14.3879 24C13.7647 23.5328 13.2326 22.8122 12.8138 21.9571C12.3493 21.0089 11.998 19.8513 11.7962 18.5652C11.0801 18.463 10.3708 18.3162 9.67228 18.1256C9.14792 17.9868 8.63713 17.7993 8.1463 17.5653ZM17.6121 24C19.1578 23.6744 20.5749 22.89 21.6853 21.7452C22.7958 20.6004 23.5501 19.1463 23.8537 17.5653C23.3631 17.7992 22.8526 17.9868 22.3286 18.1256C21.6298 18.3163 20.9202 18.4631 20.2038 18.5652C20.0012 19.8513 19.6507 21.0089 19.1862 21.9571C18.7674 22.8122 18.2353 23.5328 17.6121 24ZM23.9829 15.4518C24.0057 15.8169 24.0057 16.1831 23.9829 16.5482L23.8925 16.6103C23.4956 16.8715 22.8952 17.1223 22.1174 17.3386C21.5837 17.4869 20.9774 17.6162 20.3136 17.7231C20.4311 16.5775 20.4311 15.4225 20.3136 14.2769C20.9774 14.3829 21.5837 14.5131 22.1174 14.6614C22.8952 14.8777 23.4956 15.1285 23.8925 15.3897C23.9246 15.4104 23.9548 15.4311 23.9829 15.4518ZM23.8537 14.4355C23.5503 12.8544 22.796 11.4001 21.6855 10.2552C20.5751 9.1102 19.158 8.32564 17.6121 8C18.2353 8.46719 18.7674 9.1878 19.1862 10.0429C19.6507 10.9911 20.002 12.1487 20.2038 13.4348C20.9199 13.537 21.6292 13.6838 22.3277 13.8744C22.9096 14.0356 23.4255 14.2226 23.8537 14.4347M12.6254 13.3262C12.8205 12.2099 13.1338 11.216 13.529 10.4084C14.1244 9.19297 14.8591 8.48184 15.5997 8.29307V13.1443C14.606 13.155 13.6134 13.2162 12.6254 13.3262ZM16.4003 13.1443V8.29307C17.1409 8.48271 17.8756 9.19297 18.471 10.4084C18.8662 11.216 19.1795 12.2099 19.3746 13.3262C18.3866 13.2159 17.394 13.1552 16.4003 13.1443ZM12.5038 14.1623C13.5316 14.0398 14.565 13.9724 15.5997 13.9606V18.0394C14.5653 18.0275 13.5322 17.9602 12.5047 17.8377C12.4342 17.2278 12.3992 16.6142 12.4 16C12.4 15.3656 12.4354 14.7501 12.5038 14.1623ZM19.4962 14.1623C18.4684 14.0398 17.435 13.9724 16.4003 13.9606V18.0394C17.435 18.0276 18.4684 17.9602 19.4962 17.8377C19.5637 17.2499 19.6 16.6344 19.6 16C19.6 15.3656 19.5637 14.7501 19.4962 14.1623ZM12.6254 18.6739C13.5527 18.7799 14.5542 18.8428 15.5997 18.8549V23.7069C14.8591 23.5173 14.1244 22.807 13.529 21.5916C13.1338 20.784 12.8205 19.7901 12.6254 18.6739ZM16.4003 18.8557V23.7069C17.1409 23.5173 17.8756 22.807 18.471 21.5916C18.8662 20.784 19.1795 19.7901 19.3746 18.6739C18.3866 18.7838 17.394 18.845 16.4003 18.8557Z" fill="url(#paint0_linear_1_46)"/>
<defs>
<linearGradient id="paint0_linear_1_46" x1="16" y1="8" x2="16" y2="24" gradientUnits="userSpaceOnUse">
<stop stop-color="#EA2120"/>
<stop offset="0.533654" stop-color="#FFC300"/>
<stop offset="1" stop-color="#006E01"/>
</linearGradient>
</defs>
</svg>
