<svg width="32" height="32" viewBox="0 0 32 32" fill="none" xmlns="http://www.w3.org/2000/svg">
<rect width="32" height="32" rx="16" fill="#C8E6C9"/>
<path d="M15.8901 24C15.1133 24 14.4567 23.7395 13.9203 23.2184C13.3845 22.6979 13.1166 22.0604 13.1166 21.3059C13.1166 20.6316 13.3382 20.0459 13.7814 19.5488C14.2246 19.0522 14.7809 18.7535 15.4504 18.6527V16.46H12.035C11.644 16.46 11.3095 16.3247 11.0317 16.0542C10.7538 15.7837 10.6146 15.4592 10.614 15.0805V13.3883H9.21052C9.00885 13.3883 8.84002 13.3222 8.70401 13.1901C8.568 13.058 8.5 12.894 8.5 12.6981V9.12413C8.5 8.9214 8.568 8.75454 8.70401 8.62357C8.84002 8.49259 9.00885 8.4271 9.21052 8.4271H12.8906C13.0987 8.4271 13.2702 8.49316 13.405 8.62527C13.5399 8.75739 13.6073 8.9214 13.6073 9.11729V12.6921C13.6073 12.8943 13.5393 13.0608 13.4033 13.1918C13.2667 13.3228 13.0978 13.3883 12.8968 13.3883H11.4933V15.0796C11.4933 15.2334 11.544 15.3595 11.6454 15.458C11.7469 15.5565 11.8767 15.6058 12.035 15.6058H19.746C19.9037 15.6058 20.0333 15.5565 20.1347 15.458C20.2361 15.3595 20.2868 15.2336 20.2868 15.0805V13.3464C19.6174 13.2462 19.061 12.9478 18.6178 12.4512C18.1746 11.9547 17.953 11.369 17.953 10.6941C17.953 9.94017 18.2212 9.30237 18.7577 8.78074C19.2935 8.26025 19.9501 8 20.7274 8C21.5047 8 22.1607 8.26053 22.6954 8.78159C23.2318 9.30265 23.5 9.94017 23.5 10.6941C23.5 11.369 23.2784 11.9547 22.8352 12.4512C22.392 12.9478 21.8357 13.2465 21.1662 13.3473V15.0805C21.1662 15.4597 21.027 15.7843 20.7485 16.0542C20.47 16.3242 20.1359 16.4594 19.746 16.46H16.3298V18.6527C16.9992 18.7535 17.5556 19.0525 17.9988 19.5496C18.442 20.0462 18.6636 20.6316 18.6636 21.3059C18.6636 22.0604 18.3954 22.6982 17.859 23.2193C17.3225 23.7398 16.6668 24 15.8901 24Z" fill="url(#paint0_linear_33_9)"/>
<defs>
<linearGradient id="paint0_linear_33_9" x1="16" y1="8" x2="16" y2="24" gradientUnits="userSpaceOnUse">
<stop stop-color="#EA2120"/>
<stop offset="0.533654" stop-color="#FFC300"/>
<stop offset="1" stop-color="#006E01"/>
</linearGradient>
</defs>
</svg>
