<svg width="46" height="46" viewBox="0 0 46 46" fill="none" xmlns="http://www.w3.org/2000/svg">
<rect width="46" height="46" rx="12" fill="#F3F1E3"/>
<path d="M23.9426 10.0574L35.9426 22.0574C36.7826 22.8974 36.188 24.3334 35 24.3334H33.6666V32.3334C33.6666 33.3942 33.2452 34.4117 32.4951 35.1618C31.7449 35.9119 30.7275 36.3334 29.6666 36.3334H28.3333V27C28.3334 25.9798 27.9435 24.998 27.2436 24.2557C26.5436 23.5134 25.5865 23.0666 24.568 23.0067L24.3333 23H21.6666C20.6058 23 19.5884 23.4215 18.8382 24.1716C18.0881 24.9218 17.6666 25.9392 17.6666 27V36.3334H16.3333C15.2724 36.3334 14.255 35.9119 13.5049 35.1618C12.7547 34.4117 12.3333 33.3942 12.3333 32.3334V24.3334H11C9.8133 24.3334 9.2173 22.8974 10.0573 22.0574L22.0573 10.0574C22.3073 9.80741 22.6464 9.66699 23 9.66699C23.3535 9.66699 23.6926 9.80741 23.9426 10.0574ZM24.3333 25.6667C24.6869 25.6667 25.0261 25.8072 25.2761 26.0572C25.5262 26.3073 25.6666 26.6464 25.6666 27V36.3334H20.3333V27C20.3333 26.6735 20.4532 26.3583 20.6703 26.1142C20.8873 25.8702 21.1863 25.7143 21.5106 25.676L21.6666 25.6667H24.3333Z" fill="url(#paint0_linear_1_124)"/>
<defs>
<linearGradient id="paint0_linear_1_124" x1="23.0001" y1="9.66699" x2="23.0001" y2="36.3334" gradientUnits="userSpaceOnUse">
<stop stop-color="#EA2120"/>
<stop offset="0.533654" stop-color="#FFC300"/>
<stop offset="1" stop-color="#006E01"/>
</linearGradient>
</defs>
</svg>
