<svg width="32" height="36" viewBox="0 0 32 36" fill="none" xmlns="http://www.w3.org/2000/svg">
<rect y="4" width="32" height="32" rx="16" fill="#C8E6C9"/>
<path d="M13.75 14.75C13.75 13.9462 14.1789 13.2034 14.875 12.8014C15.5712 12.3995 16.4289 12.3995 17.125 12.8014C17.8212 13.2034 18.25 13.9462 18.25 14.75C18.25 15.5538 17.8212 16.2966 17.125 16.6986C16.4289 17.1005 15.5712 17.1005 14.875 16.6986C14.1789 16.2966 13.75 15.5538 13.75 14.75ZM10.2406 16.5156C10.6469 15.9562 11.4281 15.8344 11.9875 16.2406L13.1188 17.0625C13.9563 17.6719 14.9656 18 16 18Cnan nan 18.0438 17.6719 18.8813 17.0625L20.0125 16.2375C20.5719 15.8312 21.3531 15.9562 21.7594 16.5125Cnan nan 22.0406 17.8531 21.4844 18.2594L20.3531 19.0844C19.9281 19.3937 19.475 19.6531 19 19.8656V21H13V19.8656C12.525 19.6562 12.0719 19.3937 11.6469 19.0844L10.5156 18.2594C9.95625 17.8531 9.83438 17.0719 10.2406 16.5125V16.5156ZM13.0469 22.2906L14.9406 23.9469L14.1281 25.1094L14.8875 25.8687C15.375 26.3562 15.375 27.1469 14.8875 27.6375Cnan nan 13.6094 28.125 13.1188 27.6375L11.6188 26.1375C11.1875 25.7063 11.1281 25.0312 11.475 24.5344L13.0438 22.2906H13.0469ZM17.0625 23.9469L18.9563 22.2906L20.525 24.5344C20.8719 25.0312 20.8125 25.7062 20.3844 26.1344L18.8844 27.6344C18.3969 28.1219 17.6063 28.1219 17.1156 27.6344Cnan nan 16.6281 26.3563 17.1156 25.8656L17.875 25.1062L17.0625 23.9438V23.9469Z" fill="url(#paint0_linear_1_56)"/>
<defs>
<linearGradient id="paint0_linear_1_56" x1="15.9996" y1="12.5" x2="15.9996" y2="28.0043" gradientUnits="userSpaceOnUse">
<stop stop-color="#EA2120"/>
<stop offset="0.533654" stop-color="#FFC300"/>
<stop offset="1" stop-color="#006E01"/>
</linearGradient>
</defs>
</svg>
