<svg width="46" height="46" viewBox="0 0 46 46" fill="none" xmlns="http://www.w3.org/2000/svg">
<rect width="46" height="46" rx="12" fill="#F3F1E3"/>
<path d="M11 18.5C11 15.1859 13.6859 12.5 17 12.5H29C32.3141 12.5 35 15.1859 35 18.5V20.075C33.2891 20.4219 32 21.9359 32 23.75V26H14V23.75C14 21.9359 12.7109 20.4219 11 20.075V18.5ZM33.5 23.75C33.5 22.7703 34.1281 21.9359 35 21.6266C35.2344 21.5422 35.4875 21.5 35.75 21.5C36.9922 21.5 38 22.5078 38 23.75V32C38 32.8297 37.3297 33.5 36.5 33.5H35C34.1703 33.5 33.5 32.8297 33.5 32H12.5C12.5 32.8297 11.8297 33.5 11 33.5H9.5C8.67031 33.5 8 32.8297 8 32V23.75C8 22.5078 9.00781 21.5 10.25 21.5C10.5125 21.5 10.7656 21.5469 11 21.6266C11.8719 21.9359 12.5 22.7703 12.5 23.75V26V27.5H14H32H33.5V26V23.75Z" fill="url(#paint0_linear_1_117)"/>
<defs>
<linearGradient id="paint0_linear_1_117" x1="23" y1="12.5" x2="23" y2="33.5" gradientUnits="userSpaceOnUse">
<stop stop-color="#EA2120"/>
<stop offset="0.533654" stop-color="#FFC300"/>
<stop offset="1" stop-color="#006E01"/>
</linearGradient>
</defs>
</svg>
